HIERARCHY
ROOT Hips
{
	OFFSET 0.000000 0.000000 0.000000 
	CHANNELS 6 Xposition Yposition Zposition Yrotation Zrotation Xrotation 
	JOINT Lumbar
	{
		OFFSET 0.000000 0.000000 0.000000 
		CHANNELS 3 Zrotation Xrotation Yrotation
		JOINT Neck
		{
			OFFSET 0.000000 0.445665 0.000000 
			CHANNELS 3 Zrotation Xrotation Yrotation
			End Site
			{
				OFFSET 0.000000 0.227535 0.000000 
			}
		}
		JOINT RightShoulder
		{
			OFFSET 0.019635 0.377685 0.194865 
			CHANNELS 3 Zrotation Xrotation Yrotation
			JOINT RightElbow
			{
				OFFSET 0.000000 -0.243375 0.000000 
				CHANNELS 2 Zrotation Yrotation
				JOINT RightWrist
				{
					OFFSET 0.000000 -0.264825 0.000000 
					CHANNELS 2 Zrotation Xrotation
					End Site
					{
						OFFSET 0.006600 -0.176220 0.000990 
					}
				}
			}
		}
		JOINT LeftShoulder
		{
			OFFSET 0.019635 0.377685 -0.194865 
			CHANNELS 3 Zrotation Xrotation Yrotation
			JOINT LeftElbow
			{
				OFFSET 0.000000 -0.243375 0.000000 
				CHANNELS 2 Zrotation Yrotation
				JOINT LeftWrist
				{
					OFFSET 0.000000 -0.264825 0.000000 
					CHANNELS 2 Zrotation Xrotation
					End Site
					{
						OFFSET 0.006600 -0.176220 -0.000990 
					}
				}
			}
		}
	}
	JOINT RightHip
	{
		OFFSET 0.052140 -0.069960 0.075570 
		CHANNELS 3 Zrotation Xrotation Yrotation
		JOINT RightKnee
		{
			OFFSET 0.000000 -0.402270 0.000000 
			CHANNELS 1 Zrotation
			JOINT RightAnkle
			{
				OFFSET 0.000000 -0.404085 0.000000 
				CHANNELS 3 Zrotation Xrotation Yrotation
				End Site
				{
					OFFSET 0.204105 -0.089430 0.008415 
				}
			}
		}
	}
	JOINT LeftHip
	{
		OFFSET 0.052140 -0.069960 -0.075570 
		CHANNELS 3 Zrotation Xrotation Yrotation
		JOINT LeftKnee
		{
			OFFSET 0.000000 -0.402270 0.000000 
			CHANNELS 1 Zrotation
			JOINT LeftAnkle
			{
				OFFSET 0.000000 -0.404085 0.000000 
				CHANNELS 3 Zrotation Xrotation Yrotation
				End Site
				{
					OFFSET 0.204105 -0.089430 -0.008415 
				}
			}
		}
	}
}
MOTION
Frames: 28
Frame Time: 0.02
-0.00156 0.92528 -0.106 185.4868 0 -13.50764 12.34628 11.53844 -9.53592 -17.6832 4.03406 -2.15648 -19.65263 -38.4737 49.256 80.29025 33.96175 -37.26621 4.23519 29.16095 -2.6697 -14.17654 133.38118 -46.50769 52.94629 6.09181 2.04375 13.69369 -46.69606 -21.10868 -1.70866 0 13.00614 17.61957 -1.46832 13.7334 -51.17833 4.91506 0.05506 -3.528
-0.00214 0.92513 -0.10649 185.5147 0 -13.50764 12.38072 11.47479 -9.49731 -18.07761 4.06106 -2.12366 -19.29854 -38.48294 49.18982 80.2207 34.12774 -37.09777 4.21763 29.28563 -2.56832 -14.0994 133.40985 -45.43762 52.89338 4.98371 2.04649 13.69369 -46.69606 -21.20603 -1.66473 -3e-05 13.00614 17.61188 -1.47059 13.61879 -51.23527 4.98581 0.04715 -3.52736
-0.00287 0.92498 -0.10697 185.51104 0 -13.5041 12.45317 11.41482 -9.44645 -18.49454 4.11475 -2.04712 -18.95019 -38.54528 49.12222 80.1825 34.27718 -36.94689 4.2056 29.45716 -2.43433 -14.1125 133.34326 -43.7935 52.95706 3.65913 2.03315 13.69369 -46.69606 -21.28876 -1.62456 -7e-05 13.00614 17.58588 -1.52927 13.40392 -51.25225 5.08497 0.07356 -3.43585
-0.00355 0.92484 -0.10743 185.51951 0 -13.50122 12.51263 11.35408 -9.3983 -18.90877 4.15902 -1.99054 -18.59763 -38.58898 49.0469 80.13474 34.43384 -36.78266 4.19167 29.61256 -2.30885 -14.08937 133.31239 -42.48674 52.96622 2.51201 2.02435 13.69369 -46.69606 -21.37325 -1.58299 -0.0001 13.00614 17.55893 -1.56916 13.23528 -51.2708 5.17733 0.09123 -3.36983
-0.00419 0.92466 -0.10797 185.53913 0 -13.50192 12.55519 11.28819 -9.36143 -19.29365 4.18983 -1.93682 -18.24754 -38.60549 49.00795 80.06588 34.59275 -36.64049 4.17486 29.74736 -2.21014 -14.04238 133.31613 -40.87097 52.98138 1.03606 2.02684 13.69369 -46.69606 -21.47872 -1.5389 -0.00015 13.00614 17.57033 -1.57943 13.06663 -51.35963 5.2452 0.07885 -3.37233
-0.00494 0.92456 -0.10835 185.52701 0 -13.49482 12.64166 11.23504 -9.29982 -19.74394 4.25606 -1.86428 -17.89605 -38.69441 48.89133 80.04922 34.74214 -36.45559 4.16576 29.93216 -2.04855 -14.06561 133.22689 -39.75849 53.00668 0.18532 2.00232 13.69369 -46.69606 -21.53708 -1.50153 -0.00017 13.00614 17.49814 -1.6664 12.86948 -51.29243 5.3694 0.13928 -3.20641
-0.00594 0.92466 -0.10836 185.43878 0 -13.46279 12.83843 11.20832 -9.15603 -20.37073 4.41066 -1.76556 -17.53107 -38.95065 48.57347 80.16513 34.87415 -36.16223 4.17352 30.28801 -1.71222 -14.29002 132.86883 -40.15973 53.09759 1.19299 1.90501 13.69369 -46.69606 -21.46633 -1.48061 -0.00015 13.00614 17.19581 -1.93388 12.66489 -50.80567 5.65347 0.37109 -2.64176
-0.00703 0.92482 -0.10821 185.31858 0 -13.42383 13.07812 11.19579 -8.99084 -21.0618 4.60109 -1.64624 -17.16698 -39.28225 48.17413 80.33326 34.99513 -35.82245 4.18982 30.6849 -1.31485 -14.57767 132.42518 -41.0879 53.18428 2.82298 1.78158 13.69369 -46.69606 -21.34906 -1.46691 -0.00011 13.00614 16.81115 -2.27903 12.42792 -50.16358 5.99095 0.6781 -1.90419
-0.00807 0.92495 -0.1081 185.21058 0 -13.39078 13.29918 11.18201 -8.84633 -21.72242 4.77685 -1.52635 -16.80778 -39.59204 47.80492 80.48033 35.11922 -35.49577 4.20367 31.03395 -0.95179 -14.81775 132.04444 -41.78376 53.22914 4.11644 1.67142 13.69369 -46.69606 -21.25473 -1.45054 -7e-05 13.00614 16.46619 -2.60087 12.17354 -49.59081 6.29672 0.96551 -1.21538
-0.00918 0.9251 -0.1081 185.11218 0 -13.34584 13.51829 11.14655 -8.65498 -22.38983 4.94538 -1.44736 -16.42444 -39.8496 47.46883 80.61761 35.25505 -35.20549 4.20997 31.50681 -0.56169 -15.13937 131.56353 -42.43074 53.4584 5.62869 1.5544 13.69369 -46.69606 -21.15237 -1.43079 -4e-05 13.00614 16.10925 -2.87702 12.04557 -49.01947 6.63547 1.19571 -0.64357
-0.01016 0.92522 -0.10784 184.98557 0 -13.3242 13.75067 11.15939 -8.55647 -23.05717 5.13878 -1.27829 -16.09397 -40.23506 47.03935 80.78675 35.35868 -34.82558 4.2361 31.73217 -0.21157 -15.30628 131.26662 -43.31073 53.30643 6.83633 1.44614 13.69369 -46.69605 -21.05581 -1.42089 -0 13.00614 15.76005 -3.26235 11.65509 -48.41195 6.91712 1.55856 0.20462
-0.01086 0.92528 -0.10686 184.79822 0 -13.36741 14.0128 11.30358 -8.71849 -23.71576 5.37725 -0.87059 -15.88849 -40.93804 46.41397 81.03533 35.4205 -34.23167 4.29681 31.253 -0.0057 -15.01881 131.54644 -44.72661 52.05393 7.04675 1.36459 13.69369 -46.69599 -20.98651 -1.42658 3e-05 13.0061 15.43576 -3.96176 10.48622 -47.71698 7.03282 2.30236 1.83453
-0.01142 0.92532 -0.10562 184.58236 0 -13.43439 14.28584 11.49547 -8.97525 -24.37048 5.64165 -0.37242 -15.73993 -41.76938 45.68869 81.31315 35.44131 -33.54523 4.38078 30.52498 0.16154 -14.57471 132.00589 -46.36261 50.42488 6.93055 1.29347 13.69368 -46.69591 -20.92434 -1.44361 5e-05 13.00605 15.12604 -4.76238 9.066 -46.997 7.08732 3.17043 3.72455
-0.01201 0.92536 -0.10451 184.37307 0 -13.49152 14.55142 11.66469 -9.18907 -25.02228 5.90444 0.08772 -15.57903 -42.55392 44.9827 81.57473 35.45283 -32.88622 4.46561 29.91815 0.35829 -14.21022 132.35236 -47.88039 49.0017 6.96798 1.22028 13.69368 -46.69584 -20.85952 -1.46211 8e-05 13.00601 14.81967 -5.49539 7.802 -46.30406 7.16767 3.96014 5.45538
-0.01274 0.92541 -0.10336 184.18802 0 -13.54512 14.82943 11.83907 -9.40047 -25.69653 6.12763 0.53646 -15.36149 -43.2954 44.38771 81.85088 35.58499 -32.2862 4.50145 29.27935 0.50537 -13.8145 132.82833 -49.47268 47.43827 7.00667 1.13523 13.69368 -46.69575 -20.79214 -1.45352 0.00011 13.00596 14.46524 -6.32157 6.36066 -45.53507 7.26178 4.8461 7.36625
-0.01315 0.92545 -0.10222 183.94815 0 -13.61091 15.08312 12.01327 -9.64117 -26.32172 6.43638 1.02904 -15.2749 -44.15235 43.53434 82.10259 35.45235 -31.54334 4.64603 28.64653 0.74762 -13.44318 133.0781 -50.98071 46.06941 6.95507 1.0773 13.69367 -46.6957 -20.73043 -1.50315 0.00014 13.00593 14.21934 -6.97773 5.22802 -44.92611 7.30749 5.55858 8.96046
-0.01275 0.92547 -0.1012 183.54648 0 -13.71223 15.27034 12.18055 -9.92605 -26.81565 6.99721 1.62982 -15.54122 -45.32789 42.03163 82.2828 34.63558 -30.41882 5.07264 28.09879 1.24701 -13.19958 132.66143 -51.9828 45.40423 6.74808 1.09535 13.69368 -46.69576 -20.69979 -1.71799 0.00012 13.00596 14.23762 -7.12975 5.02257 -44.71793 7.27429 5.77484 9.62553
-0.01201 0.92548 -0.10019 183.09383 0 -13.82365 15.4316 12.34512 -10.23911 -27.25877 7.63901 2.26954 -15.93668 -46.60879 40.26597 82.43684 33.54943 -29.1573 5.60904 27.5637 1.84573 -12.98152 132.01073 -52.93094 44.93714 6.45549 1.13988 13.69368 -46.6958 -20.67169 -1.98984 0.0001 13.00601 14.37157 -7.10828 5.13457 -44.68068 7.18797 5.80976 9.9605
-0.0114 0.9255 -0.09915 182.67638 0 -13.9254 15.60263 12.50722 -10.54913 -27.72347 8.22892 2.88553 -16.26923 -47.82091 38.59425 82.60015 32.55909 -27.96328 6.10485 27.01798 2.40891 -12.73698 131.4665 -54.04503 44.3267 6.19011 1.16991 13.69368 -46.69592 -20.63131 -2.2306 9e-05 13.00605 14.47323 -7.17272 5.09217 -44.59767 7.0981 5.91816 10.4397
-0.01091 0.92546 -0.0982 182.20801 0 -14.04927 15.78368 12.68595 -10.824 -28.19701 8.88311 3.53111 -16.62039 -49.12669 37.0243 82.7744 31.6691 -26.73775 6.56695 26.48551 2.93139 -12.54972 130.92892 -54.5698 43.91539 5.96422 1.2103 13.69369 -46.696 -20.63785 -2.49289 7e-05 13.00609 14.48747 -7.21224 5.08207 -44.38134 7.11817 6.06706 10.95204
-0.01008 0.92556 -0.09708 181.83283 0 -14.12936 15.93626 12.82961 -11.17402 -28.63688 9.42276 4.12193 -16.96422 -50.25959 35.18451 82.92073 30.51991 -25.55421 7.11905 25.93008 3.56132 -12.25134 130.3184 -56.30655 43.15741 5.63851 1.23574 13.69369 -46.69585 -20.54751 -2.72466 6e-05 13.00612 14.71395 -7.25946 5.08547 -44.48063 6.9035 6.0889 11.31415
-0.00841 0.92602 -0.09548 181.73772 0 -14.08398 16.02737 12.86952 -11.75498 -29.02364 9.62224 4.5616 -17.2431 -50.89865 32.63624 82.98437 28.60684 -24.45487 7.94414 25.32165 4.4748 -11.63909 129.57341 -61.39885 41.25522 5.07002 1.20962 13.69369 -46.69627 -20.18638 -2.84968 0.00015 13.00609 15.47263 -7.38396 5.03057 -45.43046 6.00077 5.78597 11.3338
-0.00639 0.92661 -0.09371 181.73654 0 -13.99439 16.08863 12.8753 -12.40483 -29.37314 9.70435 4.94258 -17.51235 -51.35803 29.83123 83.02346 26.46338 -23.41515 8.84646 24.6876 5.49034 -10.91469 128.76064 -67.71111 39.02389 4.40288 1.16833 13.69368 -46.69522 -19.72823 -2.94329 0.00027 13.00605 16.44476 -7.51907 4.98203 -46.68446 4.87316 5.36388 11.21289
-0.00451 0.92713 -0.09202 181.68556 0 -13.92638 16.15648 12.90155 -13.0023 -29.72171 9.84266 5.34368 -17.79423 -51.89252 27.16232 83.08077 24.50079 -22.39145 9.67943 24.0587 6.45297 -10.24337 127.97134 -73.46813 37.03741 3.77532 1.13626 13.69368 -46.69536 -19.31608 -3.05716 0.00036 13.00601 17.33698 -7.63999 4.94472 -47.79054 3.88427 5.00811 11.16175
-0.00272 0.92768 -0.0903 181.66212 0 -13.85274 16.253 12.90723 -13.68825 -30.14394 9.97146 5.77378 -18.04559 -52.45708 24.40186 83.10501 22.20853 -21.18098 10.66022 23.46079 7.44964 -9.56541 127.20395 -79.23207 34.66014 3.16885 1.09477 13.69368 -46.69749 -18.89555 -3.14885 0.00049 13.00596 18.16463 -7.79475 4.86231 -48.95914 2.74193 4.59608 11.07845
-0.00065 0.92821 -0.0886 181.60516 0 -13.77986 16.2829 12.94715 -14.20782 -30.40455 10.09149 6.1291 -18.35684 -52.91661 21.77494 83.1956 20.55009 -20.37535 11.35082 22.78796 8.39452 -8.87246 126.37913 -85.26545 33.01016 2.49353 1.06961 13.69367 -46.68988 -18.46992 -3.27715 0.00055 13.00593 19.17149 -7.88342 4.8667 -50.04788 1.86321 4.27356 11.02794
0.00216 0.92869 -0.087 181.42594 0 -13.72267 16.13772 13.09426 -14.23439 -30.22807 10.2126 6.29123 -18.83433 -53.11419 19.57641 83.45126 20.71473 -20.67504 11.21347 21.94984 9.20307 -8.1811 125.40237 -91.79804 33.49907 1.67583 1.0875 13.69368 -46.70151 -18.04977 -3.52561 0.00036 13.00596 20.65792 -7.79037 5.14401 -51.00883 1.79654 4.24305 11.14828
0.00524 0.92916 -0.08542 181.21153 0 -13.66726 15.92646 13.27615 -14.09423 -29.89053 10.32917 6.37999 -19.37322 -53.21423 17.52206 83.77986 21.52387 -21.38019 10.78223 21.03036 9.94904 -7.47509 124.3734 -98.54776 34.71994 0.78842 1.12323 13.69368 -46.69548 -17.62876 -3.80951 0.0001 13.00601 22.3092 -7.6304 5.49816 -51.84668 1.99801 4.30495 11.30057
